{
	"asset":{
		"generator":"Khronos glTF Blender I/O v3.6.28",
		"version":"2.0"
	},
	"extensionsUsed":[
		"KHR_materials_emissive_strength"
	],
	"scene":0,
	"scenes":[
		{
			"name":"Scene",
			"nodes":[
				0
			]
		}
	],
	"nodes":[
		{
			"mesh":0,
			"name":"Cube.013",
			"scale":[
				1,
				0.7138984799385071,
				0.7300093173980713
			],
			"translation":[
				0,
				0.21121670305728912,
				0
			]
		}
	],
	"materials":[
		{
			"doubleSided":true,
			"name":"Material.020",
			"pbrMetallicRoughness":{
				"metallicFactor":0,
				"roughnessFactor":0.14220184087753296
			}
		},
		{
			"doubleSided":true,
			"name":"Material.023",
			"pbrMetallicRoughness":{
				"baseColorFactor":[
					0,
					0.003789630252867937,
					0.03305407240986824,
					1
				],
				"metallicFactor":0,
				"roughnessFactor":0.10091742873191833
			}
		},
		{
			"doubleSided":true,
			"emissiveFactor":[
				1,
				0.33464065194129944,
				0.07144895195960999
			],
			"extensions":{
				"KHR_materials_emissive_strength":{
					"emissiveStrength":5
				}
			},
			"name":"Material.024",
			"pbrMetallicRoughness":{
				"baseColorFactor":[
					0.800000011920929,
					0.800000011920929,
					0.800000011920929,
					1
				],
				"metallicFactor":0,
				"roughnessFactor":0.14678898453712463
			}
		},
		{
			"doubleSided":true,
			"name":"Material.021",
			"pbrMetallicRoughness":{
				"baseColorFactor":[
					0.029098505154252052,
					0.029098505154252052,
					0.029098505154252052,
					1
				],
				"metallicFactor":0,
				"roughnessFactor":0.6376146674156189
			}
		},
		{
			"doubleSided":true,
			"name":"Material.022",
			"pbrMetallicRoughness":{
				"baseColorFactor":[
					0.16954006254673004,
					0.31277531385421753,
					0.8549770712852478,
					1
				],
				"metallicFactor":0,
				"roughnessFactor":0.13302753865718842
			}
		}
	],
	"meshes":[
		{
			"name":"Cube.010",
			"primitives":[
				{
					"attributes":{
						"POSITION":0,
						"NORMAL":1,
						"TEXCOORD_0":2
					},
					"indices":3,
					"material":0
				},
				{
					"attributes":{
						"POSITION":4,
						"NORMAL":5,
						"TEXCOORD_0":6
					},
					"indices":7,
					"material":1
				},
				{
					"attributes":{
						"POSITION":8,
						"NORMAL":9,
						"TEXCOORD_0":10
					},
					"indices":11,
					"material":2
				},
				{
					"attributes":{
						"POSITION":12,
						"NORMAL":13,
						"TEXCOORD_0":14
					},
					"indices":15,
					"material":3
				},
				{
					"attributes":{
						"POSITION":16,
						"NORMAL":17,
						"TEXCOORD_0":18
					},
					"indices":19,
					"material":4
				}
			]
		}
	],
	"accessors":[
		{
			"bufferView":0,
			"componentType":5126,
			"count":41634,
			"max":[
				1.3698298931121826,
				2.1212737560272217,
				0.9819798469543457
			],
			"min":[
				-1.3698302507400513,
				-0.22025418281555176,
				-1.1160759925842285
			],
			"type":"VEC3"
		},
		{
			"bufferView":1,
			"componentType":5126,
			"count":41634,
			"type":"VEC3"
		},
		{
			"bufferView":2,
			"componentType":5126,
			"count":41634,
			"type":"VEC2"
		},
		{
			"bufferView":3,
			"componentType":5123,
			"count":244224,
			"type":"SCALAR"
		},
		{
			"bufferView":4,
			"componentType":5126,
			"count":6048,
			"max":[
				0.737224280834198,
				1.7424216270446777,
				1.0352394580841064
			],
			"min":[
				-0.7372241020202637,
				0.2679733633995056,
				0.7657545804977417
			],
			"type":"VEC3"
		},
		{
			"bufferView":5,
			"componentType":5126,
			"count":6048,
			"type":"VEC3"
		},
		{
			"bufferView":6,
			"componentType":5126,
			"count":6048,
			"type":"VEC2"
		},
		{
			"bufferView":7,
			"componentType":5123,
			"count":34992,
			"type":"SCALAR"
		},
		{
			"bufferView":8,
			"componentType":5126,
			"count":2016,
			"max":[
				0.722511351108551,
				1.5224037170410156,
				1.0352394580841064
			],
			"min":[
				-0.7225112915039062,
				0.48968032002449036,
				0.8056073188781738
			],
			"type":"VEC3"
		},
		{
			"bufferView":9,
			"componentType":5126,
			"count":2016,
			"type":"VEC3"
		},
		{
			"bufferView":10,
			"componentType":5126,
			"count":2016,
			"type":"VEC2"
		},
		{
			"bufferView":11,
			"componentType":5123,
			"count":11664,
			"type":"SCALAR"
		},
		{
			"bufferView":12,
			"componentType":5126,
			"count":3714,
			"max":[
				1.3193165063858032,
				1.7583303451538086,
				0.9471028447151184
			],
			"min":[
				-1.3193169832229614,
				-0.2915816307067871,
				-1.0575692653656006
			],
			"type":"VEC3"
		},
		{
			"bufferView":13,
			"componentType":5126,
			"count":3714,
			"type":"VEC3"
		},
		{
			"bufferView":14,
			"componentType":5126,
			"count":3714,
			"type":"VEC2"
		},
		{
			"bufferView":15,
			"componentType":5123,
			"count":19968,
			"type":"SCALAR"
		},
		{
			"bufferView":16,
			"componentType":5126,
			"count":2717,
			"max":[
				1.3698298931121826,
				2.2073261737823486,
				0.7140928506851196
			],
			"min":[
				-1.3698302507400513,
				-0.05331331491470337,
				-0.8245592713356018
			],
			"type":"VEC3"
		},
		{
			"bufferView":17,
			"componentType":5126,
			"count":2717,
			"type":"VEC3"
		},
		{
			"bufferView":18,
			"componentType":5126,
			"count":2717,
			"type":"VEC2"
		},
		{
			"bufferView":19,
			"componentType":5123,
			"count":14400,
			"type":"SCALAR"
		}
	],
	"bufferViews":[
		{
			"buffer":0,
			"byteLength":499608,
			"byteOffset":0,
			"target":34962
		},
		{
			"buffer":0,
			"byteLength":499608,
			"byteOffset":499608,
			"target":34962
		},
		{
			"buffer":0,
			"byteLength":333072,
			"byteOffset":999216,
			"target":34962
		},
		{
			"buffer":0,
			"byteLength":488448,
			"byteOffset":1332288,
			"target":34963
		},
		{
			"buffer":0,
			"byteLength":72576,
			"byteOffset":1820736,
			"target":34962
		},
		{
			"buffer":0,
			"byteLength":72576,
			"byteOffset":1893312,
			"target":34962
		},
		{
			"buffer":0,
			"byteLength":48384,
			"byteOffset":1965888,
			"target":34962
		},
		{
			"buffer":0,
			"byteLength":69984,
			"byteOffset":2014272,
			"target":34963
		},
		{
			"buffer":0,
			"byteLength":24192,
			"byteOffset":2084256,
			"target":34962
		},
		{
			"buffer":0,
			"byteLength":24192,
			"byteOffset":2108448,
			"target":34962
		},
		{
			"buffer":0,
			"byteLength":16128,
			"byteOffset":2132640,
			"target":34962
		},
		{
			"buffer":0,
			"byteLength":23328,
			"byteOffset":2148768,
			"target":34963
		},
		{
			"buffer":0,
			"byteLength":44568,
			"byteOffset":2172096,
			"target":34962
		},
		{
			"buffer":0,
			"byteLength":44568,
			"byteOffset":2216664,
			"target":34962
		},
		{
			"buffer":0,
			"byteLength":29712,
			"byteOffset":2261232,
			"target":34962
		},
		{
			"buffer":0,
			"byteLength":39936,
			"byteOffset":2290944,
			"target":34963
		},
		{
			"buffer":0,
			"byteLength":32604,
			"byteOffset":2330880,
			"target":34962
		},
		{
			"buffer":0,
			"byteLength":32604,
			"byteOffset":2363484,
			"target":34962
		},
		{
			"buffer":0,
			"byteLength":21736,
			"byteOffset":2396088,
			"target":34962
		},
		{
			"buffer":0,
			"byteLength":28800,
			"byteOffset":2417824,
			"target":34963
		}
	],
	"buffers":[
		{
			"byteLength":2446624,
			"uri":"robot.bin"
		}
	]
}
