{
	"asset":{
		"generator":"Khronos glTF Blender I/O v3.6.28",
		"version":"2.0"
	},
	"extensionsUsed":[
		"KHR_materials_transmission",
		"KHR_materials_ior"
	],
	"scene":0,
	"scenes":[
		{
			"name":"Scene",
			"nodes":[
				0
			]
		}
	],
	"nodes":[
		{
			"mesh":0,
			"name":"Sphere.002",
			"rotation":[
				0,
				-0.36974671483039856,
				0,
				0.9291325807571411
			],
			"scale":[
				0.1489143669605255,
				0.1489143669605255,
				0.1489143669605255
			],
			"translation":[
				3.048475980758667,
				0.06189115345478058,
				-1.43983793258667
			]
		}
	],
	"animations":[
		{
			"channels":[
				{
					"sampler":0,
					"target":{
						"node":0,
						"path":"translation"
					}
				},
				{
					"sampler":1,
					"target":{
						"node":0,
						"path":"rotation"
					}
				}
			],
			"name":"SphereAction.001",
			"samplers":[
				{
					"input":20,
					"interpolation":"LINEAR",
					"output":21
				},
				{
					"input":20,
					"interpolation":"LINEAR",
					"output":22
				}
			]
		}
	],
	"materials":[
		{
			"doubleSided":true,
			"name":"dizzy sphere",
			"pbrMetallicRoughness":{}
		},
		{
			"doubleSided":true,
			"extensions":{
				"KHR_materials_transmission":{
					"transmissionFactor":0.3636363744735718
				},
				"KHR_materials_ior":{
					"ior":1.4500000476837158
				}
			},
			"name":"dizzy",
			"pbrMetallicRoughness":{
				"metallicFactor":0,
				"roughnessFactor":0.20676690340042114
			}
		},
		{
			"doubleSided":true,
			"name":"shell dizzy",
			"pbrMetallicRoughness":{
				"metallicFactor":0.6136363744735718,
				"roughnessFactor":0.4272727370262146
			}
		},
		{
			"doubleSided":true,
			"name":"dizzy eye 1",
			"pbrMetallicRoughness":{
				"baseColorFactor":[
					0.20649059116840363,
					0.9152125120162964,
					1,
					1
				],
				"metallicFactor":0,
				"roughnessFactor":0
			}
		},
		{
			"doubleSided":true,
			"name":"dizzy eye 2",
			"pbrMetallicRoughness":{
				"baseColorFactor":[
					0.854968249797821,
					0.6688038110733032,
					0,
					1
				],
				"metallicFactor":0,
				"roughnessFactor":0.018796980381011963
			}
		}
	],
	"meshes":[
		{
			"name":"Sphere.003",
			"primitives":[
				{
					"attributes":{
						"POSITION":0,
						"NORMAL":1,
						"TEXCOORD_0":2
					},
					"indices":3,
					"material":0
				},
				{
					"attributes":{
						"POSITION":4,
						"NORMAL":5,
						"TEXCOORD_0":6
					},
					"indices":7,
					"material":1
				},
				{
					"attributes":{
						"POSITION":8,
						"NORMAL":9,
						"TEXCOORD_0":10
					},
					"indices":11,
					"material":2
				},
				{
					"attributes":{
						"POSITION":12,
						"NORMAL":13,
						"TEXCOORD_0":14
					},
					"indices":15,
					"material":3
				},
				{
					"attributes":{
						"POSITION":16,
						"NORMAL":17,
						"TEXCOORD_0":18
					},
					"indices":19,
					"material":4
				}
			]
		}
	],
	"accessors":[
		{
			"bufferView":0,
			"componentType":5126,
			"count":16498,
			"max":[
				0.9501851797103882,
				0.9915064573287964,
				0.947186291217804
			],
			"min":[
				-0.9711563587188721,
				-0.9743596911430359,
				-0.982302725315094
			],
			"type":"VEC3"
		},
		{
			"bufferView":1,
			"componentType":5126,
			"count":16498,
			"type":"VEC3"
		},
		{
			"bufferView":2,
			"componentType":5126,
			"count":16498,
			"type":"VEC2"
		},
		{
			"bufferView":3,
			"componentType":5123,
			"count":95232,
			"type":"SCALAR"
		},
		{
			"bufferView":4,
			"componentType":5126,
			"count":13335,
			"max":[
				0.43060919642448425,
				0.8367541432380676,
				0.7039851546287537
			],
			"min":[
				-0.46456804871559143,
				-0.7056832909584045,
				-0.25021716952323914
			],
			"type":"VEC3"
		},
		{
			"bufferView":5,
			"componentType":5126,
			"count":13335,
			"type":"VEC3"
		},
		{
			"bufferView":6,
			"componentType":5126,
			"count":13335,
			"type":"VEC2"
		},
		{
			"bufferView":7,
			"componentType":5123,
			"count":71424,
			"type":"SCALAR"
		},
		{
			"bufferView":8,
			"componentType":5126,
			"count":6696,
			"max":[
				0.32659533619880676,
				0.6113678812980652,
				0.5469027161598206
			],
			"min":[
				-0.4296541213989258,
				-0.8302218317985535,
				-0.5481821298599243
			],
			"type":"VEC3"
		},
		{
			"bufferView":9,
			"componentType":5126,
			"count":6696,
			"type":"VEC3"
		},
		{
			"bufferView":10,
			"componentType":5126,
			"count":6696,
			"type":"VEC2"
		},
		{
			"bufferView":11,
			"componentType":5123,
			"count":35328,
			"type":"SCALAR"
		},
		{
			"bufferView":12,
			"componentType":5126,
			"count":1426,
			"max":[
				0.10364708304405212,
				0.5430538654327393,
				0.49820512533187866
			],
			"min":[
				-0.36123448610305786,
				0.23918816447257996,
				0.33720868825912476
			],
			"type":"VEC3"
		},
		{
			"bufferView":13,
			"componentType":5126,
			"count":1426,
			"type":"VEC3"
		},
		{
			"bufferView":14,
			"componentType":5126,
			"count":1426,
			"type":"VEC2"
		},
		{
			"bufferView":15,
			"componentType":5123,
			"count":7680,
			"type":"SCALAR"
		},
		{
			"bufferView":16,
			"componentType":5126,
			"count":1426,
			"max":[
				0.08464646339416504,
				0.4958993196487427,
				0.47876685857772827
			],
			"min":[
				-0.32294830679893494,
				0.2741507887840271,
				0.39333879947662354
			],
			"type":"VEC3"
		},
		{
			"bufferView":17,
			"componentType":5126,
			"count":1426,
			"type":"VEC3"
		},
		{
			"bufferView":18,
			"componentType":5126,
			"count":1426,
			"type":"VEC2"
		},
		{
			"bufferView":19,
			"componentType":5123,
			"count":7680,
			"type":"SCALAR"
		},
		{
			"bufferView":20,
			"componentType":5126,
			"count":52,
			"max":[
				4.366666666666666
			],
			"min":[
				2.6666666666666665
			],
			"type":"SCALAR"
		},
		{
			"bufferView":21,
			"componentType":5126,
			"count":52,
			"type":"VEC3"
		},
		{
			"bufferView":22,
			"componentType":5126,
			"count":52,
			"type":"VEC4"
		}
	],
	"bufferViews":[
		{
			"buffer":0,
			"byteLength":197976,
			"byteOffset":0,
			"target":34962
		},
		{
			"buffer":0,
			"byteLength":197976,
			"byteOffset":197976,
			"target":34962
		},
		{
			"buffer":0,
			"byteLength":131984,
			"byteOffset":395952,
			"target":34962
		},
		{
			"buffer":0,
			"byteLength":190464,
			"byteOffset":527936,
			"target":34963
		},
		{
			"buffer":0,
			"byteLength":160020,
			"byteOffset":718400,
			"target":34962
		},
		{
			"buffer":0,
			"byteLength":160020,
			"byteOffset":878420,
			"target":34962
		},
		{
			"buffer":0,
			"byteLength":106680,
			"byteOffset":1038440,
			"target":34962
		},
		{
			"buffer":0,
			"byteLength":142848,
			"byteOffset":1145120,
			"target":34963
		},
		{
			"buffer":0,
			"byteLength":80352,
			"byteOffset":1287968,
			"target":34962
		},
		{
			"buffer":0,
			"byteLength":80352,
			"byteOffset":1368320,
			"target":34962
		},
		{
			"buffer":0,
			"byteLength":53568,
			"byteOffset":1448672,
			"target":34962
		},
		{
			"buffer":0,
			"byteLength":70656,
			"byteOffset":1502240,
			"target":34963
		},
		{
			"buffer":0,
			"byteLength":17112,
			"byteOffset":1572896,
			"target":34962
		},
		{
			"buffer":0,
			"byteLength":17112,
			"byteOffset":1590008,
			"target":34962
		},
		{
			"buffer":0,
			"byteLength":11408,
			"byteOffset":1607120,
			"target":34962
		},
		{
			"buffer":0,
			"byteLength":15360,
			"byteOffset":1618528,
			"target":34963
		},
		{
			"buffer":0,
			"byteLength":17112,
			"byteOffset":1633888,
			"target":34962
		},
		{
			"buffer":0,
			"byteLength":17112,
			"byteOffset":1651000,
			"target":34962
		},
		{
			"buffer":0,
			"byteLength":11408,
			"byteOffset":1668112,
			"target":34962
		},
		{
			"buffer":0,
			"byteLength":15360,
			"byteOffset":1679520,
			"target":34963
		},
		{
			"buffer":0,
			"byteLength":208,
			"byteOffset":1694880
		},
		{
			"buffer":0,
			"byteLength":624,
			"byteOffset":1695088
		},
		{
			"buffer":0,
			"byteLength":832,
			"byteOffset":1695712
		}
	],
	"buffers":[
		{
			"byteLength":1696544,
			"uri":"dizzy%20W%20sphere.bin"
		}
	]
}
