{
	"asset":{
		"generator":"Khronos glTF Blender I/O v3.6.28",
		"version":"2.0"
	},
	"extensionsUsed":[
		"KHR_materials_transmission",
		"KHR_materials_ior"
	],
	"scene":0,
	"scenes":[
		{
			"name":"Scene",
			"nodes":[
				0
			]
		}
	],
	"nodes":[
		{
			"mesh":0,
			"name":"Cube.005",
			"scale":[
				0.10545836389064789,
				0.10545836389064789,
				0.10545836389064789
			],
			"translation":[
				0,
				0.04042678698897362,
				0
			]
		}
	],
	"materials":[
		{
			"doubleSided":true,
			"extensions":{
				"KHR_materials_transmission":{
					"transmissionFactor":0.3636363744735718
				},
				"KHR_materials_ior":{
					"ior":1.4500000476837158
				}
			},
			"name":"dizzy",
			"pbrMetallicRoughness":{
				"metallicFactor":0,
				"roughnessFactor":0.20676690340042114
			}
		},
		{
			"doubleSided":true,
			"name":"shell dizzy",
			"pbrMetallicRoughness":{
				"metallicFactor":0.6136363744735718,
				"roughnessFactor":0.4272727370262146
			}
		},
		{
			"doubleSided":true,
			"name":"dizzy eye 1",
			"pbrMetallicRoughness":{
				"baseColorFactor":[
					0.20649059116840363,
					0.9152125120162964,
					1,
					1
				],
				"metallicFactor":0,
				"roughnessFactor":0
			}
		},
		{
			"doubleSided":true,
			"name":"dizzy eye 2",
			"pbrMetallicRoughness":{
				"baseColorFactor":[
					0.854968249797821,
					0.6688038110733032,
					0,
					1
				],
				"metallicFactor":0,
				"roughnessFactor":0.018796980381011963
			}
		}
	],
	"meshes":[
		{
			"name":"Cube.008",
			"primitives":[
				{
					"attributes":{
						"COLOR_0":0,
						"POSITION":1,
						"NORMAL":2,
						"TEXCOORD_0":3
					},
					"indices":4,
					"material":0
				},
				{
					"attributes":{
						"COLOR_0":5,
						"POSITION":6,
						"NORMAL":7,
						"TEXCOORD_0":8
					},
					"indices":9,
					"material":1
				},
				{
					"attributes":{
						"COLOR_0":10,
						"POSITION":11,
						"NORMAL":12,
						"TEXCOORD_0":13
					},
					"indices":14,
					"material":2
				},
				{
					"attributes":{
						"COLOR_0":15,
						"POSITION":16,
						"NORMAL":17,
						"TEXCOORD_0":18
					},
					"indices":19,
					"material":3
				}
			]
		}
	],
	"accessors":[
		{
			"bufferView":0,
			"componentType":5123,
			"count":13335,
			"normalized":true,
			"type":"VEC4"
		},
		{
			"bufferView":1,
			"componentType":5126,
			"count":13335,
			"max":[
				1.0070971250534058,
				1.9849947690963745,
				1.582762598991394
			],
			"min":[
				-1.005519986152649,
				-1.4828505516052246,
				-0.562559962272644
			],
			"type":"VEC3"
		},
		{
			"bufferView":2,
			"componentType":5126,
			"count":13335,
			"type":"VEC3"
		},
		{
			"bufferView":3,
			"componentType":5126,
			"count":13335,
			"type":"VEC2"
		},
		{
			"bufferView":4,
			"componentType":5123,
			"count":71424,
			"type":"SCALAR"
		},
		{
			"bufferView":5,
			"componentType":5123,
			"count":6696,
			"normalized":true,
			"type":"VEC4"
		},
		{
			"bufferView":6,
			"componentType":5126,
			"count":6696,
			"max":[
				0.7732439637184143,
				1.4782613515853882,
				1.2295958995819092
			],
			"min":[
				-0.9270234107971191,
				-1.76284921169281,
				-1.2324713468551636
			],
			"type":"VEC3"
		},
		{
			"bufferView":7,
			"componentType":5126,
			"count":6696,
			"type":"VEC3"
		},
		{
			"bufferView":8,
			"componentType":5126,
			"count":6696,
			"type":"VEC2"
		},
		{
			"bufferView":9,
			"componentType":5123,
			"count":35328,
			"type":"SCALAR"
		},
		{
			"bufferView":10,
			"componentType":5123,
			"count":1426,
			"normalized":true,
			"type":"VEC4"
		},
		{
			"bufferView":11,
			"componentType":5126,
			"count":1426,
			"max":[
				0.2719918489456177,
				1.3246716260910034,
				1.1201096773147583
			],
			"min":[
				-0.773196280002594,
				0.6414936780929565,
				0.7581431269645691
			],
			"type":"VEC3"
		},
		{
			"bufferView":12,
			"componentType":5126,
			"count":1426,
			"type":"VEC3"
		},
		{
			"bufferView":13,
			"componentType":5126,
			"count":1426,
			"type":"VEC2"
		},
		{
			"bufferView":14,
			"componentType":5123,
			"count":7680,
			"type":"SCALAR"
		},
		{
			"bufferView":15,
			"componentType":5123,
			"count":1426,
			"normalized":true,
			"type":"VEC4"
		},
		{
			"bufferView":16,
			"componentType":5126,
			"count":1426,
			"max":[
				0.2292729616165161,
				1.2186546325683594,
				1.0764068365097046
			],
			"min":[
				-0.687117874622345,
				0.7200997471809387,
				0.8843398094177246
			],
			"type":"VEC3"
		},
		{
			"bufferView":17,
			"componentType":5126,
			"count":1426,
			"type":"VEC3"
		},
		{
			"bufferView":18,
			"componentType":5126,
			"count":1426,
			"type":"VEC2"
		},
		{
			"bufferView":19,
			"componentType":5123,
			"count":7680,
			"type":"SCALAR"
		}
	],
	"bufferViews":[
		{
			"buffer":0,
			"byteLength":106680,
			"byteOffset":0,
			"target":34962
		},
		{
			"buffer":0,
			"byteLength":160020,
			"byteOffset":106680,
			"target":34962
		},
		{
			"buffer":0,
			"byteLength":160020,
			"byteOffset":266700,
			"target":34962
		},
		{
			"buffer":0,
			"byteLength":106680,
			"byteOffset":426720,
			"target":34962
		},
		{
			"buffer":0,
			"byteLength":142848,
			"byteOffset":533400,
			"target":34963
		},
		{
			"buffer":0,
			"byteLength":53568,
			"byteOffset":676248,
			"target":34962
		},
		{
			"buffer":0,
			"byteLength":80352,
			"byteOffset":729816,
			"target":34962
		},
		{
			"buffer":0,
			"byteLength":80352,
			"byteOffset":810168,
			"target":34962
		},
		{
			"buffer":0,
			"byteLength":53568,
			"byteOffset":890520,
			"target":34962
		},
		{
			"buffer":0,
			"byteLength":70656,
			"byteOffset":944088,
			"target":34963
		},
		{
			"buffer":0,
			"byteLength":11408,
			"byteOffset":1014744,
			"target":34962
		},
		{
			"buffer":0,
			"byteLength":17112,
			"byteOffset":1026152,
			"target":34962
		},
		{
			"buffer":0,
			"byteLength":17112,
			"byteOffset":1043264,
			"target":34962
		},
		{
			"buffer":0,
			"byteLength":11408,
			"byteOffset":1060376,
			"target":34962
		},
		{
			"buffer":0,
			"byteLength":15360,
			"byteOffset":1071784,
			"target":34963
		},
		{
			"buffer":0,
			"byteLength":11408,
			"byteOffset":1087144,
			"target":34962
		},
		{
			"buffer":0,
			"byteLength":17112,
			"byteOffset":1098552,
			"target":34962
		},
		{
			"buffer":0,
			"byteLength":17112,
			"byteOffset":1115664,
			"target":34962
		},
		{
			"buffer":0,
			"byteLength":11408,
			"byteOffset":1132776,
			"target":34962
		},
		{
			"buffer":0,
			"byteLength":15360,
			"byteOffset":1144184,
			"target":34963
		}
	],
	"buffers":[
		{
			"byteLength":1159544,
			"uri":"dizzy.bin"
		}
	]
}
