{
	"asset":{
		"generator":"Khronos glTF Blender I/O v3.6.28",
		"version":"2.0"
	},
	"extensionsUsed":[
		"KHR_materials_transmission",
		"KHR_materials_ior",
		"KHR_materials_specular"
	],
	"scene":0,
	"scenes":[
		{
			"name":"Scene",
			"nodes":[
				0
			]
		}
	],
	"nodes":[
		{
			"mesh":0,
			"name":"Mosh.001"
		}
	],
	"materials":[
		{
			"doubleSided":true,
			"extensions":{
				"KHR_materials_transmission":{
					"transmissionFactor":0.7518796920776367
				},
				"KHR_materials_ior":{
					"ior":1.4500000476837158
				}
			},
			"name":"mosh green",
			"pbrMetallicRoughness":{
				"metallicFactor":0,
				"roughnessFactor":0
			}
		},
		{
			"doubleSided":true,
			"extensions":{
				"KHR_materials_transmission":{
					"transmissionFactor":0.7744361162185669
				},
				"KHR_materials_specular":{
					"specularColorFactor":[
						1.151889736941934,
						1.134413507449159,
						0.15667407340529108
					]
				},
				"KHR_materials_ior":{
					"ior":1.4500000476837158
				}
			},
			"name":"mosh yellow",
			"pbrMetallicRoughness":{
				"baseColorFactor":[
					1,
					0.9824397563934326,
					0,
					1
				],
				"metallicFactor":0,
				"roughnessFactor":0
			}
		},
		{
			"doubleSided":true,
			"extensions":{
				"KHR_materials_transmission":{
					"transmissionFactor":0.804511308670044
				},
				"KHR_materials_specular":{
					"specularColorFactor":[
						0.24933492004853725,
						1.5096841720402177,
						0.5568712779258973
					]
				},
				"KHR_materials_ior":{
					"ior":1.4500000476837158
				}
			},
			"name":"mosh light green",
			"pbrMetallicRoughness":{
				"baseColorFactor":[
					0,
					1,
					0.2440088391304016,
					1
				],
				"metallicFactor":0,
				"roughnessFactor":0
			}
		},
		{
			"doubleSided":true,
			"extensions":{
				"KHR_materials_transmission":{
					"transmissionFactor":0.7142857313156128
				},
				"KHR_materials_specular":{
					"specularColorFactor":[
						0.3356174101610683,
						1.546368435552019,
						0.2454480023571946
					]
				},
				"KHR_materials_ior":{
					"ior":1.4500000476837158
				}
			},
			"name":"Material",
			"pbrMetallicRoughness":{
				"baseColorFactor":[
					0.00308095826767385,
					0.04445056989789009,
					0,
					1
				],
				"metallicFactor":0,
				"roughnessFactor":0
			}
		}
	],
	"meshes":[
		{
			"name":"Cube.009",
			"primitives":[
				{
					"attributes":{
						"POSITION":0,
						"NORMAL":1,
						"TEXCOORD_0":2
					},
					"indices":3,
					"material":0
				},
				{
					"attributes":{
						"POSITION":4,
						"NORMAL":5,
						"TEXCOORD_0":6
					},
					"indices":7,
					"material":1
				},
				{
					"attributes":{
						"POSITION":8,
						"NORMAL":9,
						"TEXCOORD_0":10
					},
					"indices":11,
					"material":2
				},
				{
					"attributes":{
						"POSITION":12,
						"NORMAL":13,
						"TEXCOORD_0":14
					},
					"indices":11,
					"material":3
				}
			]
		}
	],
	"accessors":[
		{
			"bufferView":0,
			"componentType":5126,
			"count":2110,
			"max":[
				0.1177363246679306,
				0.08700253069400787,
				0.06588338315486908
			],
			"min":[
				-0.11693582683801651,
				-0.08972363919019699,
				-0.06524220108985901
			],
			"type":"VEC3"
		},
		{
			"bufferView":1,
			"componentType":5126,
			"count":2110,
			"type":"VEC3"
		},
		{
			"bufferView":2,
			"componentType":5126,
			"count":2110,
			"type":"VEC2"
		},
		{
			"bufferView":3,
			"componentType":5123,
			"count":12288,
			"type":"SCALAR"
		},
		{
			"bufferView":4,
			"componentType":5126,
			"count":6515,
			"max":[
				0.11773474514484406,
				0.09819642454385757,
				0.07093428075313568
			],
			"min":[
				-0.11956866085529327,
				-0.01255644578486681,
				-0.06687705218791962
			],
			"type":"VEC3"
		},
		{
			"bufferView":5,
			"componentType":5126,
			"count":6515,
			"type":"VEC3"
		},
		{
			"bufferView":6,
			"componentType":5126,
			"count":6515,
			"type":"VEC2"
		},
		{
			"bufferView":7,
			"componentType":5123,
			"count":37440,
			"type":"SCALAR"
		},
		{
			"bufferView":8,
			"componentType":5126,
			"count":882,
			"max":[
				0.08552905172109604,
				0.06077558919787407,
				0.06871961802244186
			],
			"min":[
				-0.08187593519687653,
				0.0016958708874881268,
				0.05223996192216873
			],
			"type":"VEC3"
		},
		{
			"bufferView":9,
			"componentType":5126,
			"count":882,
			"type":"VEC3"
		},
		{
			"bufferView":10,
			"componentType":5126,
			"count":882,
			"type":"VEC2"
		},
		{
			"bufferView":11,
			"componentType":5123,
			"count":4608,
			"type":"SCALAR"
		},
		{
			"bufferView":12,
			"componentType":5126,
			"count":882,
			"max":[
				0.07447223365306854,
				0.05072591453790665,
				0.07016973197460175
			],
			"min":[
				-0.07057605683803558,
				0.01221716683357954,
				0.05745307356119156
			],
			"type":"VEC3"
		},
		{
			"bufferView":13,
			"componentType":5126,
			"count":882,
			"type":"VEC3"
		},
		{
			"bufferView":14,
			"componentType":5126,
			"count":882,
			"type":"VEC2"
		}
	],
	"bufferViews":[
		{
			"buffer":0,
			"byteLength":25320,
			"byteOffset":0,
			"target":34962
		},
		{
			"buffer":0,
			"byteLength":25320,
			"byteOffset":25320,
			"target":34962
		},
		{
			"buffer":0,
			"byteLength":16880,
			"byteOffset":50640,
			"target":34962
		},
		{
			"buffer":0,
			"byteLength":24576,
			"byteOffset":67520,
			"target":34963
		},
		{
			"buffer":0,
			"byteLength":78180,
			"byteOffset":92096,
			"target":34962
		},
		{
			"buffer":0,
			"byteLength":78180,
			"byteOffset":170276,
			"target":34962
		},
		{
			"buffer":0,
			"byteLength":52120,
			"byteOffset":248456,
			"target":34962
		},
		{
			"buffer":0,
			"byteLength":74880,
			"byteOffset":300576,
			"target":34963
		},
		{
			"buffer":0,
			"byteLength":10584,
			"byteOffset":375456,
			"target":34962
		},
		{
			"buffer":0,
			"byteLength":10584,
			"byteOffset":386040,
			"target":34962
		},
		{
			"buffer":0,
			"byteLength":7056,
			"byteOffset":396624,
			"target":34962
		},
		{
			"buffer":0,
			"byteLength":9216,
			"byteOffset":403680,
			"target":34963
		},
		{
			"buffer":0,
			"byteLength":10584,
			"byteOffset":412896,
			"target":34962
		},
		{
			"buffer":0,
			"byteLength":10584,
			"byteOffset":423480,
			"target":34962
		},
		{
			"buffer":0,
			"byteLength":7056,
			"byteOffset":434064,
			"target":34962
		}
	],
	"buffers":[
		{
			"byteLength":441120,
			"uri":"mosh.bin"
		}
	]
}
