{
	"asset":{
		"generator":"Khronos glTF Blender I/O v3.6.28",
		"version":"2.0"
	},
	"extensionsUsed":[
		"KHR_materials_transmission",
		"KHR_materials_ior",
		"KHR_materials_specular"
	],
	"scene":0,
	"scenes":[
		{
			"name":"Scene",
			"nodes":[
				0
			]
		}
	],
	"nodes":[
		{
			"mesh":0,
			"name":"Cube.003",
			"scale":[
				0.060472939163446426,
				0.11291694641113281,
				0.11291694641113281
			]
		}
	],
	"materials":[
		{
			"doubleSided":true,
			"extensions":{
				"KHR_materials_transmission":{
					"transmissionFactor":0.6136363744735718
				},
				"KHR_materials_ior":{
					"ior":1.4500000476837158
				}
			},
			"name":"thrash",
			"pbrMetallicRoughness":{
				"metallicFactor":0,
				"roughnessFactor":0
			}
		},
		{
			"doubleSided":true,
			"extensions":{
				"KHR_materials_transmission":{
					"transmissionFactor":0.6220472455024719
				},
				"KHR_materials_ior":{
					"ior":1.4500000476837158
				}
			},
			"name":"eyes wingy",
			"pbrMetallicRoughness":{
				"baseColorFactor":[
					0,
					0,
					0,
					1
				],
				"metallicFactor":0,
				"roughnessFactor":0
			}
		},
		{
			"doubleSided":true,
			"extensions":{
				"KHR_materials_transmission":{
					"transmissionFactor":0.804511308670044
				},
				"KHR_materials_specular":{
					"specularColorFactor":[
						0.24933492004853725,
						1.5096841720402177,
						0.5568712779258973
					]
				},
				"KHR_materials_ior":{
					"ior":1.4500000476837158
				}
			},
			"name":"mosh light green",
			"pbrMetallicRoughness":{
				"baseColorFactor":[
					0,
					1,
					0.2440088391304016,
					1
				],
				"metallicFactor":0,
				"roughnessFactor":0
			}
		},
		{
			"doubleSided":true,
			"extensions":{
				"KHR_materials_transmission":{
					"transmissionFactor":0.7744361162185669
				},
				"KHR_materials_specular":{
					"specularColorFactor":[
						1.151889736941934,
						1.134413507449159,
						0.15667407340529108
					]
				},
				"KHR_materials_ior":{
					"ior":1.4500000476837158
				}
			},
			"name":"mosh yellow",
			"pbrMetallicRoughness":{
				"baseColorFactor":[
					1,
					0.9824397563934326,
					0,
					1
				],
				"metallicFactor":0,
				"roughnessFactor":0
			}
		},
		{
			"doubleSided":true,
			"name":"thrash shell",
			"pbrMetallicRoughness":{
				"metallicFactor":0,
				"roughnessFactor":0.7545454502105713
			}
		}
	],
	"meshes":[
		{
			"name":"Cube.011",
			"primitives":[
				{
					"attributes":{
						"POSITION":0,
						"NORMAL":1,
						"TEXCOORD_0":2
					},
					"indices":3,
					"material":0
				},
				{
					"attributes":{
						"POSITION":4,
						"NORMAL":5,
						"TEXCOORD_0":6
					},
					"indices":7,
					"material":1
				},
				{
					"attributes":{
						"POSITION":8,
						"NORMAL":9,
						"TEXCOORD_0":10
					},
					"indices":11,
					"material":2
				},
				{
					"attributes":{
						"POSITION":12,
						"NORMAL":13,
						"TEXCOORD_0":14
					},
					"indices":15,
					"material":3
				},
				{
					"attributes":{
						"POSITION":16,
						"NORMAL":17,
						"TEXCOORD_0":18
					},
					"indices":19,
					"material":4
				}
			]
		}
	],
	"accessors":[
		{
			"bufferView":0,
			"componentType":5126,
			"count":1929,
			"max":[
				2.7621617317199707,
				1.4619313478469849,
				1.9660335779190063
			],
			"min":[
				-2.6150991916656494,
				-1.122977614402771,
				-2.0225846767425537
			],
			"type":"VEC3"
		},
		{
			"bufferView":1,
			"componentType":5126,
			"count":1929,
			"type":"VEC3"
		},
		{
			"bufferView":2,
			"componentType":5126,
			"count":1929,
			"type":"VEC2"
		},
		{
			"bufferView":3,
			"componentType":5123,
			"count":11136,
			"type":"SCALAR"
		},
		{
			"bufferView":4,
			"componentType":5126,
			"count":610,
			"max":[
				1.3421061038970947,
				0.40961337089538574,
				1.8842374086380005
			],
			"min":[
				-2.259589910507202,
				-0.2690424919128418,
				1.163334608078003
			],
			"type":"VEC3"
		},
		{
			"bufferView":5,
			"componentType":5126,
			"count":610,
			"type":"VEC3"
		},
		{
			"bufferView":6,
			"componentType":5126,
			"count":610,
			"type":"VEC2"
		},
		{
			"bufferView":7,
			"componentType":5123,
			"count":3072,
			"type":"SCALAR"
		},
		{
			"bufferView":8,
			"componentType":5126,
			"count":610,
			"max":[
				1.523255467414856,
				0.5499398708343506,
				1.8846518993377686
			],
			"min":[
				-2.2048933506011963,
				-0.34760865569114685,
				0.9991729855537415
			],
			"type":"VEC3"
		},
		{
			"bufferView":9,
			"componentType":5126,
			"count":610,
			"type":"VEC3"
		},
		{
			"bufferView":10,
			"componentType":5126,
			"count":610,
			"type":"VEC2"
		},
		{
			"bufferView":11,
			"componentType":5123,
			"count":3072,
			"type":"SCALAR"
		},
		{
			"bufferView":12,
			"componentType":5126,
			"count":610,
			"max":[
				1.4066252708435059,
				0.4597490429878235,
				1.8815157413482666
			],
			"min":[
				-2.2393219470977783,
				-0.2971740663051605,
				1.104366421699524
			],
			"type":"VEC3"
		},
		{
			"bufferView":13,
			"componentType":5126,
			"count":610,
			"type":"VEC3"
		},
		{
			"bufferView":14,
			"componentType":5126,
			"count":610,
			"type":"VEC2"
		},
		{
			"bufferView":15,
			"componentType":5123,
			"count":3072,
			"type":"SCALAR"
		},
		{
			"bufferView":16,
			"componentType":5126,
			"count":4596,
			"max":[
				2.309647560119629,
				2.0542407035827637,
				2.171349048614502
			],
			"min":[
				-2.4346706867218018,
				-1.168014645576477,
				-1.1457246541976929
			],
			"type":"VEC3"
		},
		{
			"bufferView":17,
			"componentType":5126,
			"count":4596,
			"type":"VEC3"
		},
		{
			"bufferView":18,
			"componentType":5126,
			"count":4596,
			"type":"VEC2"
		},
		{
			"bufferView":19,
			"componentType":5123,
			"count":24480,
			"type":"SCALAR"
		}
	],
	"bufferViews":[
		{
			"buffer":0,
			"byteLength":23148,
			"byteOffset":0,
			"target":34962
		},
		{
			"buffer":0,
			"byteLength":23148,
			"byteOffset":23148,
			"target":34962
		},
		{
			"buffer":0,
			"byteLength":15432,
			"byteOffset":46296,
			"target":34962
		},
		{
			"buffer":0,
			"byteLength":22272,
			"byteOffset":61728,
			"target":34963
		},
		{
			"buffer":0,
			"byteLength":7320,
			"byteOffset":84000,
			"target":34962
		},
		{
			"buffer":0,
			"byteLength":7320,
			"byteOffset":91320,
			"target":34962
		},
		{
			"buffer":0,
			"byteLength":4880,
			"byteOffset":98640,
			"target":34962
		},
		{
			"buffer":0,
			"byteLength":6144,
			"byteOffset":103520,
			"target":34963
		},
		{
			"buffer":0,
			"byteLength":7320,
			"byteOffset":109664,
			"target":34962
		},
		{
			"buffer":0,
			"byteLength":7320,
			"byteOffset":116984,
			"target":34962
		},
		{
			"buffer":0,
			"byteLength":4880,
			"byteOffset":124304,
			"target":34962
		},
		{
			"buffer":0,
			"byteLength":6144,
			"byteOffset":129184,
			"target":34963
		},
		{
			"buffer":0,
			"byteLength":7320,
			"byteOffset":135328,
			"target":34962
		},
		{
			"buffer":0,
			"byteLength":7320,
			"byteOffset":142648,
			"target":34962
		},
		{
			"buffer":0,
			"byteLength":4880,
			"byteOffset":149968,
			"target":34962
		},
		{
			"buffer":0,
			"byteLength":6144,
			"byteOffset":154848,
			"target":34963
		},
		{
			"buffer":0,
			"byteLength":55152,
			"byteOffset":160992,
			"target":34962
		},
		{
			"buffer":0,
			"byteLength":55152,
			"byteOffset":216144,
			"target":34962
		},
		{
			"buffer":0,
			"byteLength":36768,
			"byteOffset":271296,
			"target":34962
		},
		{
			"buffer":0,
			"byteLength":48960,
			"byteOffset":308064,
			"target":34963
		}
	],
	"buffers":[
		{
			"byteLength":357024,
			"uri":"thrash.bin"
		}
	]
}
