{
	"asset":{
		"generator":"Khronos glTF Blender I/O v3.6.28",
		"version":"2.0"
	},
	"extensionsUsed":[
		"KHR_materials_transmission",
		"KHR_materials_ior"
	],
	"scene":0,
	"scenes":[
		{
			"name":"Scene",
			"nodes":[
				0
			]
		}
	],
	"nodes":[
		{
			"mesh":0,
			"name":"Cube.002",
			"scale":[
				0.08227875083684921,
				0.08227875083684921,
				0.05529867485165596
			]
		}
	],
	"materials":[
		{
			"doubleSided":true,
			"name":"shell wingy",
			"pbrMetallicRoughness":{
				"metallicFactor":0.6136363744735718,
				"roughnessFactor":0.4272727370262146
			}
		},
		{
			"doubleSided":true,
			"extensions":{
				"KHR_materials_transmission":{
					"transmissionFactor":0.6220472455024719
				},
				"KHR_materials_ior":{
					"ior":1.4500000476837158
				}
			},
			"name":"eyes wingy",
			"pbrMetallicRoughness":{
				"baseColorFactor":[
					0,
					0,
					0,
					1
				],
				"metallicFactor":0,
				"roughnessFactor":0
			}
		},
		{
			"doubleSided":true,
			"extensions":{
				"KHR_materials_transmission":{
					"transmissionFactor":0.671531081199646
				},
				"KHR_materials_ior":{
					"ior":1.249999761581421
				}
			},
			"name":"yellow wingy",
			"pbrMetallicRoughness":{
				"metallicFactor":0,
				"roughnessFactor":0.4318181872367859
			}
		}
	],
	"meshes":[
		{
			"name":"Cube.006",
			"primitives":[
				{
					"attributes":{
						"COLOR_0":0,
						"POSITION":1,
						"NORMAL":2,
						"TEXCOORD_0":3
					},
					"indices":4,
					"material":0
				},
				{
					"attributes":{
						"COLOR_0":5,
						"POSITION":6,
						"NORMAL":7,
						"TEXCOORD_0":8
					},
					"indices":9,
					"material":1
				},
				{
					"attributes":{
						"COLOR_0":10,
						"POSITION":11,
						"NORMAL":12,
						"TEXCOORD_0":13
					},
					"indices":14,
					"material":2
				}
			]
		}
	],
	"accessors":[
		{
			"bufferView":0,
			"componentType":5123,
			"count":13722,
			"normalized":true,
			"type":"VEC4"
		},
		{
			"bufferView":1,
			"componentType":5126,
			"count":13722,
			"max":[
				2.244295120239258,
				2.2365405559539795,
				1.543747901916504
			],
			"min":[
				-1.7566909790039062,
				-2.3378775119781494,
				-1.4199367761611938
			],
			"type":"VEC3"
		},
		{
			"bufferView":2,
			"componentType":5126,
			"count":13722,
			"type":"VEC3"
		},
		{
			"bufferView":3,
			"componentType":5126,
			"count":13722,
			"type":"VEC2"
		},
		{
			"bufferView":4,
			"componentType":5123,
			"count":73302,
			"type":"SCALAR"
		},
		{
			"bufferView":5,
			"componentType":5123,
			"count":1118,
			"normalized":true,
			"type":"VEC4"
		},
		{
			"bufferView":6,
			"componentType":5126,
			"count":1118,
			"max":[
				0.8156360387802124,
				0.889960527420044,
				1.5743131637573242
			],
			"min":[
				-0.8150660991668701,
				0.3788325786590576,
				1.0431751012802124
			],
			"type":"VEC3"
		},
		{
			"bufferView":7,
			"componentType":5126,
			"count":1118,
			"type":"VEC3"
		},
		{
			"bufferView":8,
			"componentType":5126,
			"count":1118,
			"type":"VEC2"
		},
		{
			"bufferView":9,
			"componentType":5123,
			"count":5760,
			"type":"SCALAR"
		},
		{
			"bufferView":10,
			"componentType":5123,
			"count":9427,
			"normalized":true,
			"type":"VEC4"
		},
		{
			"bufferView":11,
			"componentType":5126,
			"count":9427,
			"max":[
				2.145237922668457,
				2.256714105606079,
				1.7905842065811157
			],
			"min":[
				-1.927029013633728,
				-2.439301013946533,
				-1.3842246532440186
			],
			"type":"VEC3"
		},
		{
			"bufferView":12,
			"componentType":5126,
			"count":9427,
			"type":"VEC3"
		},
		{
			"bufferView":13,
			"componentType":5126,
			"count":9427,
			"type":"VEC2"
		},
		{
			"bufferView":14,
			"componentType":5123,
			"count":54552,
			"type":"SCALAR"
		}
	],
	"bufferViews":[
		{
			"buffer":0,
			"byteLength":109776,
			"byteOffset":0,
			"target":34962
		},
		{
			"buffer":0,
			"byteLength":164664,
			"byteOffset":109776,
			"target":34962
		},
		{
			"buffer":0,
			"byteLength":164664,
			"byteOffset":274440,
			"target":34962
		},
		{
			"buffer":0,
			"byteLength":109776,
			"byteOffset":439104,
			"target":34962
		},
		{
			"buffer":0,
			"byteLength":146604,
			"byteOffset":548880,
			"target":34963
		},
		{
			"buffer":0,
			"byteLength":8944,
			"byteOffset":695484,
			"target":34962
		},
		{
			"buffer":0,
			"byteLength":13416,
			"byteOffset":704428,
			"target":34962
		},
		{
			"buffer":0,
			"byteLength":13416,
			"byteOffset":717844,
			"target":34962
		},
		{
			"buffer":0,
			"byteLength":8944,
			"byteOffset":731260,
			"target":34962
		},
		{
			"buffer":0,
			"byteLength":11520,
			"byteOffset":740204,
			"target":34963
		},
		{
			"buffer":0,
			"byteLength":75416,
			"byteOffset":751724,
			"target":34962
		},
		{
			"buffer":0,
			"byteLength":113124,
			"byteOffset":827140,
			"target":34962
		},
		{
			"buffer":0,
			"byteLength":113124,
			"byteOffset":940264,
			"target":34962
		},
		{
			"buffer":0,
			"byteLength":75416,
			"byteOffset":1053388,
			"target":34962
		},
		{
			"buffer":0,
			"byteLength":109104,
			"byteOffset":1128804,
			"target":34963
		}
	],
	"buffers":[
		{
			"byteLength":1237908,
			"uri":"wing.bin"
		}
	]
}
