{
	"asset":{
		"generator":"Khronos glTF Blender I/O v3.6.28",
		"version":"2.0"
	},
	"scene":0,
	"scenes":[
		{
			"name":"Scene",
			"nodes":[
				0
			]
		}
	],
	"nodes":[
		{
			"mesh":0,
			"name":"Cylinder",
			"rotation":[
				0.7071068286895752,
				0,
				0,
				0.7071068286895752
			],
			"scale":[
				0.0397036112844944,
				0.0397036112844944,
				0.0397036112844944
			],
			"translation":[
				-0.4164004921913147,
				0.9506613612174988,
				0.07789009809494019
			]
		}
	],
	"materials":[
		{
			"doubleSided":true,
			"name":"Material",
			"pbrMetallicRoughness":{
				"baseColorFactor":[
					0.5070719122886658,
					0.15934863686561584,
					0.03362271562218666,
					1
				],
				"metallicFactor":0,
				"roughnessFactor":0.24358974397182465
			}
		},
		{
			"doubleSided":true,
			"name":"Material.001",
			"pbrMetallicRoughness":{
				"baseColorFactor":[
					0,
					0,
					0,
					1
				],
				"metallicFactor":0,
				"roughnessFactor":0.26923078298568726
			}
		}
	],
	"meshes":[
		{
			"name":"Cylinder",
			"primitives":[
				{
					"attributes":{
						"POSITION":0,
						"NORMAL":1,
						"TEXCOORD_0":2
					},
					"indices":3,
					"material":0
				},
				{
					"attributes":{
						"POSITION":4,
						"NORMAL":5,
						"TEXCOORD_0":6
					},
					"indices":7,
					"material":1
				}
			]
		}
	],
	"accessors":[
		{
			"bufferView":0,
			"componentType":5126,
			"count":680,
			"max":[
				23.081039428710938,
				-0.8084884881973267,
				23.943952560424805
			],
			"min":[
				-2.105588912963867,
				-3.115089178085327,
				-26.42930030822754
			],
			"type":"VEC3"
		},
		{
			"bufferView":1,
			"componentType":5126,
			"count":680,
			"type":"VEC3"
		},
		{
			"bufferView":2,
			"componentType":5126,
			"count":680,
			"type":"VEC2"
		},
		{
			"bufferView":3,
			"componentType":5123,
			"count":3624,
			"type":"SCALAR"
		},
		{
			"bufferView":4,
			"componentType":5126,
			"count":13374,
			"max":[
				0.9935961365699768,
				1.0816340446472168,
				0.99359530210495
			],
			"min":[
				-0.9935951828956604,
				-5.00521183013916,
				-0.9935951232910156
			],
			"type":"VEC3"
		},
		{
			"bufferView":5,
			"componentType":5126,
			"count":13374,
			"type":"VEC3"
		},
		{
			"bufferView":6,
			"componentType":5126,
			"count":13374,
			"type":"VEC2"
		},
		{
			"bufferView":7,
			"componentType":5123,
			"count":76800,
			"type":"SCALAR"
		}
	],
	"bufferViews":[
		{
			"buffer":0,
			"byteLength":8160,
			"byteOffset":0,
			"target":34962
		},
		{
			"buffer":0,
			"byteLength":8160,
			"byteOffset":8160,
			"target":34962
		},
		{
			"buffer":0,
			"byteLength":5440,
			"byteOffset":16320,
			"target":34962
		},
		{
			"buffer":0,
			"byteLength":7248,
			"byteOffset":21760,
			"target":34963
		},
		{
			"buffer":0,
			"byteLength":160488,
			"byteOffset":29008,
			"target":34962
		},
		{
			"buffer":0,
			"byteLength":160488,
			"byteOffset":189496,
			"target":34962
		},
		{
			"buffer":0,
			"byteLength":106992,
			"byteOffset":349984,
			"target":34962
		},
		{
			"buffer":0,
			"byteLength":153600,
			"byteOffset":456976,
			"target":34963
		}
	],
	"buffers":[
		{
			"byteLength":610576,
			"uri":"door.bin"
		}
	]
}
