{
	"asset":{
		"generator":"Khronos glTF Blender I/O v3.6.28",
		"version":"2.0"
	},
	"scene":0,
	"scenes":[
		{
			"name":"Scene",
			"nodes":[
				0
			]
		}
	],
	"nodes":[
		{
			"mesh":0,
			"name":"Cube",
			"scale":[
				0.25,
				0.5,
				0.25
			],
			"translation":[
				0,
				1.0034472942352295,
				0
			]
		}
	],
	"materials":[
		{
			"doubleSided":true,
			"name":"Material.001",
			"normalTexture":{
				"index":0
			},
			"pbrMetallicRoughness":{
				"baseColorTexture":{
					"index":1
				},
				"metallicFactor":0,
				"roughnessFactor":0.15454547107219696
			}
		}
	],
	"meshes":[
		{
			"name":"Cube.001",
			"primitives":[
				{
					"attributes":{
						"POSITION":0,
						"NORMAL":1,
						"TEXCOORD_0":2
					},
					"indices":3,
					"material":0
				}
			]
		}
	],
	"textures":[
		{
			"sampler":0,
			"source":0
		},
		{
			"sampler":0,
			"source":1
		}
	],
	"images":[
		{
			"mimeType":"image/png",
			"name":"normal",
			"uri":"textures/normal.png"
		},
		{
			"mimeType":"image/png",
			"name":"diff",
			"uri":"textures/diff.png"
		}
	],
	"accessors":[
		{
			"bufferView":0,
			"componentType":5126,
			"count":475,
			"max":[
				1.3786022663116455,
				1.244489312171936,
				1.3786022663116455
			],
			"min":[
				-1.3786022663116455,
				-1.0003795623779297,
				-1.3786022663116455
			],
			"type":"VEC3"
		},
		{
			"bufferView":1,
			"componentType":5126,
			"count":475,
			"type":"VEC3"
		},
		{
			"bufferView":2,
			"componentType":5126,
			"count":475,
			"type":"VEC2"
		},
		{
			"bufferView":3,
			"componentType":5123,
			"count":1848,
			"type":"SCALAR"
		}
	],
	"bufferViews":[
		{
			"buffer":0,
			"byteLength":5700,
			"byteOffset":0,
			"target":34962
		},
		{
			"buffer":0,
			"byteLength":5700,
			"byteOffset":5700,
			"target":34962
		},
		{
			"buffer":0,
			"byteLength":3800,
			"byteOffset":11400,
			"target":34962
		},
		{
			"buffer":0,
			"byteLength":3696,
			"byteOffset":15200,
			"target":34963
		}
	],
	"samplers":[
		{
			"magFilter":9729,
			"minFilter":9987
		}
	],
	"buffers":[
		{
			"byteLength":18896,
			"uri":"stand.bin"
		}
	]
}
