{
	"asset":{
		"generator":"Khronos glTF Blender I/O v3.6.28",
		"version":"2.0"
	},
	"scene":0,
	"scenes":[
		{
			"name":"Scene",
			"nodes":[
				1
			]
		}
	],
	"nodes":[
		{
			"mesh":0,
			"name":"icing"
		},
		{
			"children":[
				0
			],
			"mesh":1,
			"name":"donut",
			"rotation":[
				0.1301923543214798,
				0.4961540699005127,
				-0.32350340485572815,
				0.7951268553733826
			],
			"translation":[
				0,
				0.12522566318511963,
				0
			]
		}
	],
	"materials":[
		{
			"doubleSided":true,
			"name":"icing",
			"pbrMetallicRoughness":{
				"baseColorFactor":[
					1,
					0.08650007098913193,
					0.3185468018054962,
					1
				],
				"metallicFactor":0,
				"roughnessFactor":0
			}
		},
		{
			"doubleSided":true,
			"name":"donut",
			"pbrMetallicRoughness":{
				"baseColorTexture":{
					"index":0
				},
				"metallicFactor":0,
				"roughnessFactor":0.1772727370262146
			}
		}
	],
	"meshes":[
		{
			"name":"Torus.001",
			"primitives":[
				{
					"attributes":{
						"COLOR_0":0,
						"POSITION":1,
						"NORMAL":2,
						"TEXCOORD_0":3
					},
					"indices":4,
					"material":0
				}
			]
		},
		{
			"name":"Torus",
			"primitives":[
				{
					"attributes":{
						"POSITION":5,
						"NORMAL":6,
						"TEXCOORD_0":7
					},
					"indices":8,
					"material":1
				}
			]
		}
	],
	"textures":[
		{
			"sampler":0,
			"source":0
		}
	],
	"images":[
		{
			"mimeType":"image/png",
			"name":"texture",
			"uri":"texture.png"
		}
	],
	"accessors":[
		{
			"bufferView":0,
			"componentType":5123,
			"count":14852,
			"normalized":true,
			"type":"VEC4"
		},
		{
			"bufferView":1,
			"componentType":5126,
			"count":14852,
			"max":[
				0.06721580028533936,
				0.026624687016010284,
				0.07045236229896545
			],
			"min":[
				-0.07071621716022491,
				-0.008786874823272228,
				-0.06986577808856964
			],
			"type":"VEC3"
		},
		{
			"bufferView":2,
			"componentType":5126,
			"count":14852,
			"type":"VEC3"
		},
		{
			"bufferView":3,
			"componentType":5126,
			"count":14852,
			"type":"VEC2"
		},
		{
			"bufferView":4,
			"componentType":5123,
			"count":88704,
			"type":"SCALAR"
		},
		{
			"bufferView":5,
			"componentType":5126,
			"count":68129,
			"max":[
				0.0676833987236023,
				0.02377823367714882,
				0.06787603348493576
			],
			"min":[
				-0.06800206005573273,
				-0.019239073619246483,
				-0.06813926994800568
			],
			"type":"VEC3"
		},
		{
			"bufferView":6,
			"componentType":5126,
			"count":68129,
			"type":"VEC3"
		},
		{
			"bufferView":7,
			"componentType":5126,
			"count":68129,
			"type":"VEC2"
		},
		{
			"bufferView":8,
			"componentType":5125,
			"count":405504,
			"type":"SCALAR"
		}
	],
	"bufferViews":[
		{
			"buffer":0,
			"byteLength":118816,
			"byteOffset":0,
			"target":34962
		},
		{
			"buffer":0,
			"byteLength":178224,
			"byteOffset":118816,
			"target":34962
		},
		{
			"buffer":0,
			"byteLength":178224,
			"byteOffset":297040,
			"target":34962
		},
		{
			"buffer":0,
			"byteLength":118816,
			"byteOffset":475264,
			"target":34962
		},
		{
			"buffer":0,
			"byteLength":177408,
			"byteOffset":594080,
			"target":34963
		},
		{
			"buffer":0,
			"byteLength":817548,
			"byteOffset":771488,
			"target":34962
		},
		{
			"buffer":0,
			"byteLength":817548,
			"byteOffset":1589036,
			"target":34962
		},
		{
			"buffer":0,
			"byteLength":545032,
			"byteOffset":2406584,
			"target":34962
		},
		{
			"buffer":0,
			"byteLength":1622016,
			"byteOffset":2951616,
			"target":34963
		}
	],
	"samplers":[
		{
			"magFilter":9729,
			"minFilter":9987
		}
	],
	"buffers":[
		{
			"byteLength":4573632,
			"uri":"donut%20revenge.bin"
		}
	]
}
