{
	"asset":{
		"generator":"Khronos glTF Blender I/O v3.6.28",
		"version":"2.0"
	},
	"extensionsUsed":[
		"KHR_materials_emissive_strength"
	],
	"scene":0,
	"scenes":[
		{
			"name":"Scene",
			"nodes":[
				0
			]
		}
	],
	"nodes":[
		{
			"mesh":0,
			"name":"Plane.020",
			"rotation":[
				0,
				-0.10436436533927917,
				0,
				0.9945391416549683
			],
			"translation":[
				-0.5611511468887329,
				-0.017106296494603157,
				0.40984272956848145
			]
		}
	],
	"materials":[
		{
			"doubleSided":true,
			"name":"Material.001",
			"pbrMetallicRoughness":{}
		},
		{
			"doubleSided":true,
			"name":"Material",
			"pbrMetallicRoughness":{}
		},
		{
			"doubleSided":true,
			"name":"Material.007",
			"pbrMetallicRoughness":{
				"baseColorFactor":[
					0.15735332667827606,
					0.15735332667827606,
					0.15735332667827606,
					1
				],
				"roughnessFactor":0.19999998807907104
			}
		},
		{
			"doubleSided":true,
			"name":"Material.002",
			"pbrMetallicRoughness":{
				"baseColorFactor":[
					0.0925464853644371,
					0.47449126839637756,
					0.5006464123725891,
					1
				],
				"metallicFactor":0,
				"roughnessFactor":0.30000001192092896
			}
		},
		{
			"doubleSided":true,
			"name":"Material.005",
			"pbrMetallicRoughness":{
				"baseColorFactor":[
					0.4910203218460083,
					0.24620096385478973,
					0.6444796323776245,
					1
				],
				"metallicFactor":0,
				"roughnessFactor":0.30000001192092896
			}
		},
		{
			"doubleSided":true,
			"emissiveFactor":[
				1,
				0.4837132692337036,
				0.16606053709983826
			],
			"extensions":{
				"KHR_materials_emissive_strength":{
					"emissiveStrength":5
				}
			},
			"name":"Material.004",
			"pbrMetallicRoughness":{
				"baseColorFactor":[
					0.025393621996045113,
					0.025393621996045113,
					0.025393621996045113,
					1
				],
				"metallicFactor":0,
				"roughnessFactor":0.1538461446762085
			}
		},
		{
			"doubleSided":true,
			"name":"Material.003",
			"pbrMetallicRoughness":{
				"baseColorFactor":[
					0,
					0,
					0,
					1
				],
				"metallicFactor":0,
				"roughnessFactor":0.19230768084526062
			}
		}
	],
	"meshes":[
		{
			"name":"Plane.007",
			"primitives":[
				{
					"attributes":{
						"POSITION":0,
						"NORMAL":1,
						"TEXCOORD_0":2
					},
					"indices":3,
					"material":0
				},
				{
					"attributes":{
						"POSITION":4,
						"NORMAL":5,
						"TEXCOORD_0":6
					},
					"indices":7,
					"material":1
				},
				{
					"attributes":{
						"POSITION":8,
						"NORMAL":9,
						"TEXCOORD_0":10
					},
					"indices":11,
					"material":2
				},
				{
					"attributes":{
						"POSITION":12,
						"NORMAL":13,
						"TEXCOORD_0":14
					},
					"indices":15,
					"material":3
				},
				{
					"attributes":{
						"POSITION":16,
						"NORMAL":17,
						"TEXCOORD_0":18
					},
					"indices":19,
					"material":4
				},
				{
					"attributes":{
						"POSITION":20,
						"NORMAL":21,
						"TEXCOORD_0":22
					},
					"indices":23,
					"material":5
				},
				{
					"attributes":{
						"POSITION":24,
						"NORMAL":25,
						"TEXCOORD_0":26
					},
					"indices":27,
					"material":6
				}
			]
		}
	],
	"accessors":[
		{
			"bufferView":0,
			"componentType":5126,
			"count":3349,
			"max":[
				1.8344320058822632,
				3.416677951812744,
				1.0877819061279297
			],
			"min":[
				-0.5003970861434937,
				0.011413206346333027,
				-1.2666126489639282
			],
			"type":"VEC3"
		},
		{
			"bufferView":1,
			"componentType":5126,
			"count":3349,
			"type":"VEC3"
		},
		{
			"bufferView":2,
			"componentType":5126,
			"count":3349,
			"type":"VEC2"
		},
		{
			"bufferView":3,
			"componentType":5123,
			"count":19584,
			"type":"SCALAR"
		},
		{
			"bufferView":4,
			"componentType":5126,
			"count":5504,
			"max":[
				1.768674612045288,
				3.147871494293213,
				0.5817554593086243
			],
			"min":[
				-0.8167699575424194,
				1.0325138568878174,
				-1.8454582691192627
			],
			"type":"VEC3"
		},
		{
			"bufferView":5,
			"componentType":5126,
			"count":5504,
			"type":"VEC3"
		},
		{
			"bufferView":6,
			"componentType":5126,
			"count":5504,
			"type":"VEC2"
		},
		{
			"bufferView":7,
			"componentType":5123,
			"count":30432,
			"type":"SCALAR"
		},
		{
			"bufferView":8,
			"componentType":5126,
			"count":920,
			"max":[
				1.3131725788116455,
				4.134258270263672,
				-0.5747635960578918
			],
			"min":[
				-0.32909834384918213,
				3.236311912536621,
				-1.103302240371704
			],
			"type":"VEC3"
		},
		{
			"bufferView":9,
			"componentType":5126,
			"count":920,
			"type":"VEC3"
		},
		{
			"bufferView":10,
			"componentType":5126,
			"count":920,
			"type":"VEC2"
		},
		{
			"bufferView":11,
			"componentType":5123,
			"count":4584,
			"type":"SCALAR"
		},
		{
			"bufferView":12,
			"componentType":5126,
			"count":277,
			"max":[
				1.460494041442871,
				1.026597261428833,
				1.3799104690551758
			],
			"min":[
				-0.8624364137649536,
				0.022122174501419067,
				0.8464524745941162
			],
			"type":"VEC3"
		},
		{
			"bufferView":13,
			"componentType":5126,
			"count":277,
			"type":"VEC3"
		},
		{
			"bufferView":14,
			"componentType":5126,
			"count":277,
			"type":"VEC2"
		},
		{
			"bufferView":15,
			"componentType":5123,
			"count":1260,
			"type":"SCALAR"
		},
		{
			"bufferView":16,
			"componentType":5126,
			"count":104448,
			"max":[
				1.3074616193771362,
				0.9317372441291809,
				1.3476495742797852
			],
			"min":[
				-0.7159160375595093,
				0.1757049262523651,
				0.9697428941726685
			],
			"type":"VEC3"
		},
		{
			"bufferView":17,
			"componentType":5126,
			"count":104448,
			"type":"VEC3"
		},
		{
			"bufferView":18,
			"componentType":5126,
			"count":104448,
			"type":"VEC2"
		},
		{
			"bufferView":19,
			"componentType":5125,
			"count":567936,
			"type":"SCALAR"
		},
		{
			"bufferView":20,
			"componentType":5126,
			"count":625,
			"max":[
				1.039179801940918,
				2.853682041168213,
				0.26651865243911743
			],
			"min":[
				-0.46607017517089844,
				1.449527382850647,
				-0.34193867444992065
			],
			"type":"VEC3"
		},
		{
			"bufferView":21,
			"componentType":5126,
			"count":625,
			"type":"VEC3"
		},
		{
			"bufferView":22,
			"componentType":5126,
			"count":625,
			"type":"VEC2"
		},
		{
			"bufferView":23,
			"componentType":5123,
			"count":3456,
			"type":"SCALAR"
		},
		{
			"bufferView":24,
			"componentType":5126,
			"count":1127,
			"max":[
				2.1858925819396973,
				1.585022211074829,
				0.9358510971069336
			],
			"min":[
				0.7363609075546265,
				0.02010742574930191,
				-1.9577085971832275
			],
			"type":"VEC3"
		},
		{
			"bufferView":25,
			"componentType":5126,
			"count":1127,
			"type":"VEC3"
		},
		{
			"bufferView":26,
			"componentType":5126,
			"count":1127,
			"type":"VEC2"
		},
		{
			"bufferView":27,
			"componentType":5123,
			"count":6336,
			"type":"SCALAR"
		}
	],
	"bufferViews":[
		{
			"buffer":0,
			"byteLength":40188,
			"byteOffset":0,
			"target":34962
		},
		{
			"buffer":0,
			"byteLength":40188,
			"byteOffset":40188,
			"target":34962
		},
		{
			"buffer":0,
			"byteLength":26792,
			"byteOffset":80376,
			"target":34962
		},
		{
			"buffer":0,
			"byteLength":39168,
			"byteOffset":107168,
			"target":34963
		},
		{
			"buffer":0,
			"byteLength":66048,
			"byteOffset":146336,
			"target":34962
		},
		{
			"buffer":0,
			"byteLength":66048,
			"byteOffset":212384,
			"target":34962
		},
		{
			"buffer":0,
			"byteLength":44032,
			"byteOffset":278432,
			"target":34962
		},
		{
			"buffer":0,
			"byteLength":60864,
			"byteOffset":322464,
			"target":34963
		},
		{
			"buffer":0,
			"byteLength":11040,
			"byteOffset":383328,
			"target":34962
		},
		{
			"buffer":0,
			"byteLength":11040,
			"byteOffset":394368,
			"target":34962
		},
		{
			"buffer":0,
			"byteLength":7360,
			"byteOffset":405408,
			"target":34962
		},
		{
			"buffer":0,
			"byteLength":9168,
			"byteOffset":412768,
			"target":34963
		},
		{
			"buffer":0,
			"byteLength":3324,
			"byteOffset":421936,
			"target":34962
		},
		{
			"buffer":0,
			"byteLength":3324,
			"byteOffset":425260,
			"target":34962
		},
		{
			"buffer":0,
			"byteLength":2216,
			"byteOffset":428584,
			"target":34962
		},
		{
			"buffer":0,
			"byteLength":2520,
			"byteOffset":430800,
			"target":34963
		},
		{
			"buffer":0,
			"byteLength":1253376,
			"byteOffset":433320,
			"target":34962
		},
		{
			"buffer":0,
			"byteLength":1253376,
			"byteOffset":1686696,
			"target":34962
		},
		{
			"buffer":0,
			"byteLength":835584,
			"byteOffset":2940072,
			"target":34962
		},
		{
			"buffer":0,
			"byteLength":2271744,
			"byteOffset":3775656,
			"target":34963
		},
		{
			"buffer":0,
			"byteLength":7500,
			"byteOffset":6047400,
			"target":34962
		},
		{
			"buffer":0,
			"byteLength":7500,
			"byteOffset":6054900,
			"target":34962
		},
		{
			"buffer":0,
			"byteLength":5000,
			"byteOffset":6062400,
			"target":34962
		},
		{
			"buffer":0,
			"byteLength":6912,
			"byteOffset":6067400,
			"target":34963
		},
		{
			"buffer":0,
			"byteLength":13524,
			"byteOffset":6074312,
			"target":34962
		},
		{
			"buffer":0,
			"byteLength":13524,
			"byteOffset":6087836,
			"target":34962
		},
		{
			"buffer":0,
			"byteLength":9016,
			"byteOffset":6101360,
			"target":34962
		},
		{
			"buffer":0,
			"byteLength":12672,
			"byteOffset":6110376,
			"target":34963
		}
	],
	"buffers":[
		{
			"byteLength":6123048,
			"uri":"computer.bin"
		}
	]
}
