{
	"asset":{
		"generator":"Khronos glTF Blender I/O v3.6.28",
		"version":"2.0"
	},
	"extensionsUsed":[
		"KHR_materials_emissive_strength"
	],
	"scene":0,
	"scenes":[
		{
			"name":"Scene",
			"nodes":[
				0
			]
		}
	],
	"nodes":[
		{
			"mesh":0,
			"name":"Cube.008",
			"scale":[
				0.9250553250312805,
				1,
				1
			],
			"translation":[
				0,
				0.6746565103530884,
				0
			]
		}
	],
	"materials":[
		{
			"doubleSided":true,
			"name":"Material",
			"pbrMetallicRoughness":{
				"baseColorFactor":[
					0.0521082766354084,
					0.02796831540763378,
					0.20190033316612244,
					1
				],
				"metallicFactor":0.8333333134651184,
				"roughnessFactor":0.07692308723926544
			}
		},
		{
			"doubleSided":true,
			"name":"glass",
			"pbrMetallicRoughness":{}
		},
		{
			"doubleSided":true,
			"emissiveFactor":[
				1,
				0.684386670589447,
				0.3185468912124634
			],
			"extensions":{
				"KHR_materials_emissive_strength":{
					"emissiveStrength":5
				}
			},
			"name":"light",
			"pbrMetallicRoughness":{
				"baseColorFactor":[
					0,
					0,
					0,
					1
				]
			}
		},
		{
			"doubleSided":true,
			"emissiveFactor":[
				1,
				0.0633949488401413,
				0.05775317922234535
			],
			"extensions":{
				"KHR_materials_emissive_strength":{
					"emissiveStrength":5
				}
			},
			"name":"light.001",
			"pbrMetallicRoughness":{
				"baseColorFactor":[
					0,
					0,
					0,
					1
				]
			}
		},
		{
			"doubleSided":true,
			"name":"wheels",
			"pbrMetallicRoughness":{
				"baseColorFactor":[
					0.021979141980409622,
					0.021979141980409622,
					0.021979141980409622,
					1
				],
				"metallicFactor":0
			}
		},
		{
			"doubleSided":true,
			"name":"Material.001",
			"pbrMetallicRoughness":{
				"baseColorFactor":[
					0.6738467812538147,
					0.6738467812538147,
					0.6738467812538147,
					1
				],
				"roughnessFactor":0.3333333432674408
			}
		}
	],
	"meshes":[
		{
			"name":"Cube.008",
			"primitives":[
				{
					"attributes":{
						"POSITION":0,
						"NORMAL":1,
						"TEXCOORD_0":2
					},
					"indices":3,
					"material":0
				},
				{
					"attributes":{
						"POSITION":4,
						"NORMAL":5,
						"TEXCOORD_0":6
					},
					"indices":7,
					"material":1
				},
				{
					"attributes":{
						"POSITION":8,
						"NORMAL":9,
						"TEXCOORD_0":10
					},
					"indices":11,
					"material":2
				},
				{
					"attributes":{
						"POSITION":12,
						"NORMAL":13,
						"TEXCOORD_0":14
					},
					"indices":15,
					"material":3
				},
				{
					"attributes":{
						"POSITION":16,
						"NORMAL":17,
						"TEXCOORD_0":18
					},
					"indices":19,
					"material":4
				},
				{
					"attributes":{
						"POSITION":20,
						"NORMAL":21,
						"TEXCOORD_0":22
					},
					"indices":23,
					"material":5
				},
				{
					"attributes":{
						"POSITION":24,
						"NORMAL":25,
						"TEXCOORD_0":26
					},
					"indices":27,
					"material":5
				}
			]
		}
	],
	"accessors":[
		{
			"bufferView":0,
			"componentType":5126,
			"count":8876,
			"max":[
				1.2722247838974,
				0.6785048842430115,
				2.2271924018859863
			],
			"min":[
				-1.272225022315979,
				-0.6785048842430115,
				-1.9729586839675903
			],
			"type":"VEC3"
		},
		{
			"bufferView":1,
			"componentType":5126,
			"count":8876,
			"type":"VEC3"
		},
		{
			"bufferView":2,
			"componentType":5126,
			"count":8876,
			"type":"VEC2"
		},
		{
			"bufferView":3,
			"componentType":5123,
			"count":20013,
			"type":"SCALAR"
		},
		{
			"bufferView":4,
			"componentType":5126,
			"count":424,
			"max":[
				0.9775046706199646,
				0.6613249182701111,
				1.2117295265197754
			],
			"min":[
				-0.9775046706199646,
				0.05082033574581146,
				-1.351114273071289
			],
			"type":"VEC3"
		},
		{
			"bufferView":5,
			"componentType":5126,
			"count":424,
			"type":"VEC3"
		},
		{
			"bufferView":6,
			"componentType":5126,
			"count":424,
			"type":"VEC2"
		},
		{
			"bufferView":7,
			"componentType":5123,
			"count":732,
			"type":"SCALAR"
		},
		{
			"bufferView":8,
			"componentType":5126,
			"count":136,
			"max":[
				0.9532208442687988,
				-0.08898580074310303,
				2.2146413326263428
			],
			"min":[
				-0.953220784664154,
				-0.4805367588996887,
				-2.008110761642456
			],
			"type":"VEC3"
		},
		{
			"bufferView":9,
			"componentType":5126,
			"count":136,
			"type":"VEC3"
		},
		{
			"bufferView":10,
			"componentType":5126,
			"count":136,
			"type":"VEC2"
		},
		{
			"bufferView":11,
			"componentType":5123,
			"count":216,
			"type":"SCALAR"
		},
		{
			"bufferView":12,
			"componentType":5126,
			"count":64,
			"max":[
				0.9532208442687988,
				-0.08898580074310303,
				2.2146413326263428
			],
			"min":[
				-0.953220784664154,
				-0.23684048652648926,
				-2.008110761642456
			],
			"type":"VEC3"
		},
		{
			"bufferView":13,
			"componentType":5126,
			"count":64,
			"type":"VEC3"
		},
		{
			"bufferView":14,
			"componentType":5126,
			"count":64,
			"type":"VEC2"
		},
		{
			"bufferView":15,
			"componentType":5123,
			"count":96,
			"type":"SCALAR"
		},
		{
			"bufferView":16,
			"componentType":5126,
			"count":5456,
			"max":[
				1.0302653312683105,
				-0.2527925670146942,
				1.219836711883545
			],
			"min":[
				-1.0302650928497314,
				-0.9299869537353516,
				-1.9888739585876465
			],
			"type":"VEC3"
		},
		{
			"bufferView":17,
			"componentType":5126,
			"count":5456,
			"type":"VEC3"
		},
		{
			"bufferView":18,
			"componentType":5126,
			"count":5456,
			"type":"VEC2"
		},
		{
			"bufferView":19,
			"componentType":5123,
			"count":8496,
			"type":"SCALAR"
		},
		{
			"bufferView":20,
			"componentType":5126,
			"count":2464,
			"max":[
				0.9681363701820374,
				-0.392527312040329,
				1.0801019668579102
			],
			"min":[
				-0.9681361317634583,
				-0.7902522087097168,
				-2.0697855949401855
			],
			"type":"VEC3"
		},
		{
			"bufferView":21,
			"componentType":5126,
			"count":2464,
			"type":"VEC3"
		},
		{
			"bufferView":22,
			"componentType":5126,
			"count":2464,
			"type":"VEC2"
		},
		{
			"bufferView":23,
			"componentType":5123,
			"count":4752,
			"type":"SCALAR"
		},
		{
			"bufferView":24,
			"componentType":5126,
			"count":2677,
			"max":[
				1.0124809741973877,
				-0.23768500983715057,
				1.234944224357605
			],
			"min":[
				-1.020826816558838,
				-0.6785048842430115,
				-1.9729585647583008
			],
			"type":"VEC3"
		},
		{
			"bufferView":25,
			"componentType":5126,
			"count":2677,
			"type":"VEC3"
		},
		{
			"bufferView":26,
			"componentType":5126,
			"count":2677,
			"type":"VEC2"
		},
		{
			"bufferView":27,
			"componentType":5123,
			"count":4803,
			"type":"SCALAR"
		}
	],
	"bufferViews":[
		{
			"buffer":0,
			"byteLength":106512,
			"byteOffset":0,
			"target":34962
		},
		{
			"buffer":0,
			"byteLength":106512,
			"byteOffset":106512,
			"target":34962
		},
		{
			"buffer":0,
			"byteLength":71008,
			"byteOffset":213024,
			"target":34962
		},
		{
			"buffer":0,
			"byteLength":40026,
			"byteOffset":284032,
			"target":34963
		},
		{
			"buffer":0,
			"byteLength":5088,
			"byteOffset":324060,
			"target":34962
		},
		{
			"buffer":0,
			"byteLength":5088,
			"byteOffset":329148,
			"target":34962
		},
		{
			"buffer":0,
			"byteLength":3392,
			"byteOffset":334236,
			"target":34962
		},
		{
			"buffer":0,
			"byteLength":1464,
			"byteOffset":337628,
			"target":34963
		},
		{
			"buffer":0,
			"byteLength":1632,
			"byteOffset":339092,
			"target":34962
		},
		{
			"buffer":0,
			"byteLength":1632,
			"byteOffset":340724,
			"target":34962
		},
		{
			"buffer":0,
			"byteLength":1088,
			"byteOffset":342356,
			"target":34962
		},
		{
			"buffer":0,
			"byteLength":432,
			"byteOffset":343444,
			"target":34963
		},
		{
			"buffer":0,
			"byteLength":768,
			"byteOffset":343876,
			"target":34962
		},
		{
			"buffer":0,
			"byteLength":768,
			"byteOffset":344644,
			"target":34962
		},
		{
			"buffer":0,
			"byteLength":512,
			"byteOffset":345412,
			"target":34962
		},
		{
			"buffer":0,
			"byteLength":192,
			"byteOffset":345924,
			"target":34963
		},
		{
			"buffer":0,
			"byteLength":65472,
			"byteOffset":346116,
			"target":34962
		},
		{
			"buffer":0,
			"byteLength":65472,
			"byteOffset":411588,
			"target":34962
		},
		{
			"buffer":0,
			"byteLength":43648,
			"byteOffset":477060,
			"target":34962
		},
		{
			"buffer":0,
			"byteLength":16992,
			"byteOffset":520708,
			"target":34963
		},
		{
			"buffer":0,
			"byteLength":29568,
			"byteOffset":537700,
			"target":34962
		},
		{
			"buffer":0,
			"byteLength":29568,
			"byteOffset":567268,
			"target":34962
		},
		{
			"buffer":0,
			"byteLength":19712,
			"byteOffset":596836,
			"target":34962
		},
		{
			"buffer":0,
			"byteLength":9504,
			"byteOffset":616548,
			"target":34963
		},
		{
			"buffer":0,
			"byteLength":32124,
			"byteOffset":626052,
			"target":34962
		},
		{
			"buffer":0,
			"byteLength":32124,
			"byteOffset":658176,
			"target":34962
		},
		{
			"buffer":0,
			"byteLength":21416,
			"byteOffset":690300,
			"target":34962
		},
		{
			"buffer":0,
			"byteLength":9606,
			"byteOffset":711716,
			"target":34963
		}
	],
	"buffers":[
		{
			"byteLength":721324,
			"uri":"low%20poly%20car.bin"
		}
	]
}
